<svg width="258" height="258" viewBox="0 0 258 258" fill="none" xmlns="http://www.w3.org/2000/svg">
<path d="M0 102.4C0 66.5566 0 48.635 6.97558 34.9446C13.1115 22.9022 22.9022 13.1115 34.9446 6.97558C48.635 0 66.5566 0 102.4 0H155.6C191.443 0 209.365 0 223.055 6.97558C235.098 13.1115 244.889 22.9022 251.024 34.9446C258 48.635 258 66.5566 258 102.4V155.6C258 191.443 258 209.365 251.024 223.055C244.889 235.098 235.098 244.889 223.055 251.024C209.365 258 191.443 258 155.6 258H102.4C66.5566 258 48.635 258 34.9446 251.024C22.9022 244.889 13.1115 235.098 6.97558 223.055C0 209.365 0 191.443 0 155.6V102.4Z" fill="white"/>
<path d="M44.6538 143.203C44.6538 169.45 64.1557 188.538 91.1303 188.538C115.371 188.538 125.942 176.608 132.139 167.745L113.366 157.519C110.268 163.485 103.524 170.132 90.7658 170.132C77.643 170.132 69.0768 161.439 68.1655 149.85H133.962V141.839C133.962 116.445 116.282 99.2308 90.0367 99.2308C63.4267 99.2308 44.6538 117.638 44.6538 143.203ZM68.3477 135.533C69.8058 124.796 76.914 117.638 89.8545 117.638C101.701 117.638 109.356 124.455 110.632 135.533H68.3477Z" fill="#001030"/>
<path fill-rule="evenodd" clip-rule="evenodd" d="M178.616 99.2301C161.47 99.2301 147.168 86.4462 143.885 69.4615H164.496C167.134 75.6483 172.921 79.3839 178.616 79.3839C184.31 79.3839 190.097 75.6483 192.735 69.4615H213.346C210.063 86.4462 195.761 99.2301 178.616 99.2301ZM178.616 99.2301C195.761 99.2301 210.063 112.015 213.346 129H192.735C190.097 122.813 184.31 119.078 178.615 119.078C172.921 119.078 167.134 122.813 164.496 129H143.884C147.168 112.015 161.47 99.2301 178.616 99.2301Z" fill="#008FEF"/>
</svg>
